<svg xmlns="http://www.w3.org/2000/svg" xmlns:svg="http://www.w3.org/2000/svg" id="svg7384" width="32" height="32.201" version="1.1"><metadata id="metadata90"/><title id="title9167">Gnome Symbolic Icon Theme</title><g id="layer15" transform="translate(-483.09395,-364.79874)" style="display:inline"><path id="path74" d="m 499.06041,364.79874 c -8.82972,0 -15.96646,7.21055 -15.96646,16.10063 0,8.89008 7.13674,16.10063 15.96646,16.10063 8.8297,0 16.03354,-7.21055 16.03354,-16.10063 0,-0.89439 -0.12904,-1.76166 -0.26835,-2.61635 l -14.79756,13.25664 -9.32289,-9.32701 4.8891,-4.79769 4.43584,4.73672 11.64248,-11.18104 c -2.92636,-3.76483 -7.49586,-6.1719 -12.61216,-6.1719 z" style="fill:#000;fill-opacity:1;fill-rule:evenodd;stroke:none;display:inline"/><path style="fill:#fff;stroke:none" id="path8950" d="m 511.71875,370.93748 -0.0312,0.0312 -11.59375,11.125 -0.0625,0.0625 -4.4375,-4.75 -4.84375,4.78125 9.3125,9.3125 14.75,-13.21875 c 0.002,0.0102 -0.002,0.021 0,0.0312 l 0.125,-0.0937 c -0.45853,-2.7164 -1.57856,-5.20692 -3.21875,-7.28125 z"/></g></svg>