<svg xmlns="http://www.w3.org/2000/svg" xmlns:svg="http://www.w3.org/2000/svg" id="svg7384" width="16" height="16" version="1.1"><metadata id="metadata90"/><title id="title9167">Gnome Symbolic Icon Theme</title><g id="layer9" transform="translate(-301,-257)" style="display:inline"><path id="path18112" d="m 308.91905,257.09375 c -0.5255,-0.0286 -1.03823,0.28305 -1.4375,0.96875 l -6.25,11.59375 C 300.69808,270.61964 301.27977,272 302.3253,272 l 13.15625,0 c 0.98172,0 1.90311,-1.15939 1.21875,-2.34375 L 310.3878,258.125 c -0.39872,-0.64617 -0.94325,-1.00262 -1.46875,-1.03125 z m -0.0313,3.9375 c 0.54448,-0.0172 1.04849,0.48677 1.03125,1.03125 l 0,3.9375 c 0.007,0.52831 -0.47163,1.01424 -1,1.01424 -0.52836,0 -1.00747,-0.48593 -1,-1.01424 l 0,-3.9375 c -0.008,-0.4666 0.3541,-0.91253 0.8125,-1 0.0511,-0.0145 0.10345,-0.025 0.15625,-0.0313 z m -0.9687,6.96875 2,0 0,2 -2,0 0,-2 z" class="warning" style="color:#bebebe;fill:#f57900;fill-opacity:1;fill-rule:nonzero;stroke:none;stroke-width:1.78124988;marker:none;visibility:visible;display:inline;overflow:visible;enable-background:new"/></g></svg>